<svg width="125" height="41" viewBox="0 0 125 41" fill="none" xmlns="http://www.w3.org/2000/svg">
<path d="M15.8342 10.0999C15.8342 9.92398 14.9536 9.50168 14.8127 9.39611C14.4252 9.18496 14.0377 9.009 13.6502 8.83305C12.84 8.51632 11.9946 8.30517 11.1139 8.1996C9.42306 8.02364 7.66175 8.26998 6.1118 8.97381C3.0119 10.3111 0.651748 13.3375 0.123356 16.6807C-0.475489 20.3758 1.14491 24.2469 4.13913 26.4639C4.42094 26.6751 4.70275 26.8862 5.01979 27.0622C8.29582 28.9625 12.6639 28.8218 15.799 26.6751C15.799 27.027 15.8342 27.4141 15.8342 27.766H20.3784V8.72747H15.799C15.8694 9.14977 15.8694 9.60726 15.8342 10.0999ZM15.6933 18.2643C15.6933 21.6075 13.4036 23.9654 10.1628 23.9654C7.02768 23.9654 4.6323 21.502 4.6323 18.2995C4.6323 15.0971 7.13336 12.493 10.2333 12.5985C14.0025 12.6689 15.8342 15.6602 15.6933 18.2643Z" fill="white"/>
<path d="M93.5431 8.69228H88.9637C88.9284 9.0442 88.858 9.36092 88.8228 9.78322C86.4978 8.51633 84.1377 7.84769 81.5309 8.26999C78.9242 8.69228 76.7402 9.8536 75.1198 11.8947C72.3017 15.449 72.0551 20.0943 74.4505 23.719C75.9652 26.0416 78.114 27.5549 80.8617 28.1179C83.5388 28.681 86.1103 28.3291 88.6819 26.9566C88.1535 28.7514 87.2376 29.9831 85.7229 30.6517C82.4821 32.0946 79.8049 30.8629 77.4447 28.9625C76.3527 30.0183 75.2959 31.0388 74.2039 32.1298C74.6266 32.5169 75.0493 32.9744 75.5425 33.3263C78.2549 35.3322 81.3196 35.9304 84.6661 35.5433C89.8091 34.9451 93.5783 30.8277 93.5783 25.6545V9.46649C93.5431 9.22015 93.5431 8.93862 93.5431 8.69228ZM83.0809 23.9302C80.0162 23.895 77.3743 21.6075 77.3743 18.2643C77.3743 14.5341 80.6503 12.5633 83.2218 12.6689C86.3569 12.7745 88.7875 15.1675 88.7875 18.3347C88.7875 21.4668 86.2513 23.9654 83.0809 23.9302Z" fill="white"/>
<path d="M56.2034 10.0999C51.9058 6.68637 45.8117 8.23479 43.1345 11.1205C39.788 14.71 39.4357 20.4462 42.3243 24.3525C43.7333 26.288 45.6708 27.5549 47.9957 28.0827C50.9195 28.7514 53.7375 28.5754 56.2034 26.3936C56.2386 26.9566 56.2386 27.3437 56.2738 27.766H60.7828V8.69228H56.2386C56.2034 9.14977 56.2034 9.57206 56.2034 10.0999ZM56.0272 18.2643C56.0272 21.5723 53.7375 23.9302 50.5672 23.9302C47.3616 23.9302 44.9662 21.5019 44.931 18.2643C44.931 15.0619 47.4673 12.4578 50.5672 12.5633C54.3716 12.6689 56.2034 15.6954 56.0272 18.2643Z" fill="white"/>
<path d="M111.473 10.2407C107.387 6.86232 100.764 7.60134 97.3475 11.6484C96.1146 13.1264 95.4805 15.0619 95.2691 16.9623C94.8464 20.7981 95.9737 24.0357 99.0736 26.3584C101.997 28.5754 105.309 28.7514 108.761 27.8364C110.804 27.3085 112.495 26.2176 113.692 24.7396C112.706 23.6486 111.79 22.6281 110.839 21.6075C109.078 23.1559 107.176 24.1765 104.851 24.0709C102.596 24.0005 100.342 22.3465 100.025 20.1999C100.06 20.3758 106.894 20.1999 107.528 20.1999H114.89C114.925 20.1999 114.961 20.1999 114.996 20.1647C115.031 20.1295 115.031 20.0943 115.031 20.0591C115.031 19.2497 115.101 18.4051 115.031 17.5957C114.784 14.7452 113.728 12.1058 111.473 10.2407ZM99.9894 16.3288C100.412 14.1469 102.561 12.3874 105.027 12.3522C107.563 12.317 109.818 13.971 110.381 16.3288H99.9894Z" fill="white"/>
<path d="M37.6744 3.58952H32.9189V8.69228H30.5235V12.7041H32.9541V27.766H37.7096V12.6689H40.105V8.5867H37.6392C37.6744 6.89752 37.6744 5.24352 37.6744 3.58952Z" fill="white"/>
<path d="M122.499 8.62189V3.58952H117.814V8.69228H115.418V12.7041H117.849V27.766H122.534V12.6689H125V8.5867C124.155 8.62189 123.38 8.62189 122.499 8.62189Z" fill="white"/>
<path d="M73.1824 8.65709H63.319V27.766H68.0041V12.6689H73.1824V8.65709Z" fill="white"/>
<path d="M23.5487 27.766H28.1281V8.65709H23.5487V27.766Z" fill="white"/>
<path d="M28.9736 3.13204C28.9736 3.9627 28.6432 4.75935 28.0553 5.34672C27.4673 5.93409 26.6699 6.26407 25.8384 6.26407C25.0069 6.26407 24.2095 5.93409 23.6216 5.34672C23.0336 4.75935 22.7033 3.9627 22.7033 3.13204C22.7033 2.30137 23.0336 1.50472 23.6216 0.917352C24.2095 0.329981 25.0069 0 25.8384 0C26.6699 0 27.4673 0.329981 28.0553 0.917352C28.6432 1.50472 28.9736 2.30137 28.9736 3.13204Z" fill="white"/>
<path d="M2.0865 37.5448C2.2256 37.7053 2.3754 37.8176 2.5359 37.8818C2.69997 37.946 2.86938 37.9781 3.04415 37.9781C3.22605 37.9781 3.39012 37.946 3.53635 37.8818C3.68615 37.8141 3.81455 37.7089 3.92155 37.5662C4.02855 37.42 4.11058 37.2309 4.16765 36.9991C4.22472 36.7673 4.25325 36.4873 4.25325 36.1591C4.25325 35.8667 4.23007 35.6188 4.1837 35.4155C4.13733 35.2086 4.06778 35.0392 3.97505 34.9072C3.88588 34.7753 3.77532 34.679 3.64335 34.6183C3.51138 34.5577 3.35802 34.5274 3.18325 34.5274C2.95142 34.5274 2.7499 34.5791 2.5787 34.6825C2.41107 34.7824 2.247 34.9304 2.0865 35.1266V37.5448ZM2.0865 34.1208C2.30407 33.9032 2.54482 33.7285 2.80875 33.5965C3.07268 33.4645 3.36872 33.3985 3.69685 33.3985C4.01428 33.3985 4.29962 33.4627 4.55285 33.5911C4.80965 33.716 5.02722 33.8961 5.20555 34.1315C5.38745 34.3669 5.52655 34.6522 5.62285 34.9875C5.72272 35.3192 5.77265 35.6919 5.77265 36.1057C5.77265 36.5515 5.71558 36.9581 5.60145 37.3254C5.49088 37.6892 5.33217 38.0013 5.1253 38.2617C4.91843 38.5221 4.67055 38.7236 4.38165 38.8663C4.09632 39.0089 3.7771 39.0803 3.424 39.0803C3.2528 39.0803 3.09943 39.0624 2.9639 39.0268C2.82837 38.9947 2.70353 38.9483 2.5894 38.8876C2.47527 38.827 2.37005 38.7557 2.27375 38.6736C2.17745 38.588 2.0865 38.4935 2.0009 38.3901L1.94205 38.7218C1.91708 38.8252 1.87607 38.8983 1.819 38.9411C1.76193 38.9804 1.68525 39 1.58895 39H0.6099V31.0231H2.0865V34.1208ZM9.21044 33.3985C9.62418 33.3985 10.0005 33.4645 10.3393 33.5965C10.6781 33.7285 10.9688 33.9175 11.2113 34.1636C11.4539 34.4061 11.6411 34.7022 11.7731 35.0517C11.9051 35.4012 11.971 35.7953 11.971 36.234C11.971 36.6727 11.9051 37.0686 11.7731 37.4217C11.6411 37.7713 11.4539 38.0691 11.2113 38.3152C10.9688 38.5613 10.6781 38.7503 10.3393 38.8823C10.0005 39.0143 9.62418 39.0803 9.21044 39.0803C8.79314 39.0803 8.41329 39.0143 8.07089 38.8823C7.73206 38.7503 7.44138 38.5613 7.19884 38.3152C6.95631 38.0691 6.76728 37.7713 6.63174 37.4217C6.49978 37.0686 6.43379 36.6727 6.43379 36.234C6.43379 35.7953 6.49978 35.4012 6.63174 35.0517C6.76728 34.7022 6.95631 34.4061 7.19884 34.1636C7.44138 33.9175 7.73206 33.7285 8.07089 33.5965C8.41329 33.4645 8.79314 33.3985 9.21044 33.3985ZM9.21044 37.9728C9.63131 37.9728 9.94339 37.8284 10.1467 37.5395C10.35 37.247 10.4516 36.8136 10.4516 36.2394C10.4516 35.6687 10.35 35.2389 10.1467 34.95C9.94339 34.6576 9.63131 34.5113 9.21044 34.5113C8.77888 34.5113 8.46144 34.6576 8.25814 34.95C8.05484 35.2389 7.95319 35.6687 7.95319 36.2394C7.95319 36.8136 8.05484 37.247 8.25814 37.5395C8.46144 37.8284 8.77888 37.9728 9.21044 37.9728ZM15.3859 33.3985C15.7997 33.3985 16.1759 33.4645 16.5148 33.5965C16.8536 33.7285 17.1443 33.9175 17.3868 34.1636C17.6294 34.4061 17.8166 34.7022 17.9486 35.0517C18.0805 35.4012 18.1465 35.7953 18.1465 36.234C18.1465 36.6727 18.0805 37.0686 17.9486 37.4217C17.8166 37.7713 17.6294 38.0691 17.3868 38.3152C17.1443 38.5613 16.8536 38.7503 16.5148 38.8823C16.1759 39.0143 15.7997 39.0803 15.3859 39.0803C14.9686 39.0803 14.5888 39.0143 14.2464 38.8823C13.9075 38.7503 13.6169 38.5613 13.3743 38.3152C13.1318 38.0691 12.9428 37.7713 12.8072 37.4217C12.6753 37.0686 12.6093 36.6727 12.6093 36.234C12.6093 35.7953 12.6753 35.4012 12.8072 35.0517C12.9428 34.7022 13.1318 34.4061 13.3743 34.1636C13.6169 33.9175 13.9075 33.7285 14.2464 33.5965C14.5888 33.4645 14.9686 33.3985 15.3859 33.3985ZM15.3859 37.9728C15.8068 37.9728 16.1189 37.8284 16.3222 37.5395C16.5255 37.247 16.6271 36.8136 16.6271 36.2394C16.6271 35.6687 16.5255 35.2389 16.3222 34.95C16.1189 34.6576 15.8068 34.5113 15.3859 34.5113C14.9544 34.5113 14.6369 34.6576 14.4336 34.95C14.2303 35.2389 14.1287 35.6687 14.1287 36.2394C14.1287 36.8136 14.2303 37.247 14.4336 37.5395C14.6369 37.8284 14.9544 37.9728 15.3859 37.9728ZM20.5503 31.0231V35.5492H20.7964C20.8891 35.5492 20.9622 35.5368 21.0157 35.5118C21.0692 35.4833 21.1227 35.4333 21.1762 35.362L22.396 33.7356C22.4567 33.6536 22.5244 33.5911 22.5993 33.5483C22.6778 33.5055 22.7759 33.4842 22.8936 33.4842H24.2418L22.6582 35.4957C22.5333 35.6634 22.3889 35.7953 22.2248 35.8916C22.3069 35.9487 22.3782 36.0147 22.4388 36.0896C22.4995 36.1645 22.5583 36.2483 22.6154 36.3411L24.322 39H22.9952C22.8811 39 22.783 38.9822 22.701 38.9465C22.6189 38.9073 22.5512 38.8395 22.4977 38.7432L21.2565 36.7155C21.2065 36.6299 21.1548 36.5747 21.1013 36.5497C21.0478 36.5247 20.9676 36.5122 20.8606 36.5122H20.5503V39H19.0737V31.0231H20.5503ZM28.3441 34.6183C28.3049 34.679 28.2639 34.7236 28.2211 34.7521C28.1818 34.7771 28.1266 34.7895 28.0552 34.7895C27.9839 34.7895 27.9108 34.7717 27.8359 34.736C27.761 34.7004 27.6772 34.6629 27.5844 34.6237C27.4917 34.5809 27.3847 34.5417 27.2634 34.506C27.1457 34.4703 27.0084 34.4525 26.8515 34.4525C26.6125 34.4525 26.427 34.5024 26.2951 34.6023C26.1631 34.6986 26.0971 34.827 26.0971 34.9875C26.0971 35.0981 26.1346 35.1908 26.2095 35.2657C26.2844 35.3406 26.3825 35.4066 26.5037 35.4636C26.6286 35.5171 26.7694 35.5689 26.9264 35.6188C27.0833 35.6652 27.2438 35.7169 27.4079 35.7739C27.5755 35.831 27.7378 35.897 27.8947 35.9719C28.0517 36.0468 28.1908 36.1413 28.312 36.2554C28.4369 36.366 28.5367 36.5015 28.6116 36.6621C28.6865 36.819 28.724 37.0098 28.724 37.2345C28.724 37.502 28.674 37.7499 28.5742 37.9781C28.4779 38.2028 28.3352 38.3972 28.1462 38.5613C27.9571 38.7254 27.7217 38.8538 27.44 38.9465C27.1582 39.0392 26.8336 39.0856 26.4663 39.0856C26.2772 39.0856 26.09 39.0678 25.9045 39.0321C25.7191 39 25.5425 38.9536 25.3749 38.893C25.2072 38.8288 25.0503 38.7557 24.9041 38.6736C24.7578 38.5916 24.6312 38.5024 24.5242 38.4061L24.8666 37.8551C24.9059 37.7909 24.954 37.741 25.0111 37.7053C25.0717 37.6696 25.1484 37.6518 25.2411 37.6518C25.3303 37.6518 25.4123 37.675 25.4872 37.7213C25.5621 37.7641 25.6459 37.8123 25.7387 37.8658C25.8314 37.9157 25.9402 37.9639 26.065 38.0103C26.1934 38.053 26.3521 38.0744 26.5412 38.0744C26.6838 38.0744 26.8069 38.0584 26.9103 38.0263C27.0138 37.9942 27.0976 37.9514 27.1618 37.8979C27.226 37.8408 27.2723 37.7784 27.3009 37.7106C27.333 37.6393 27.349 37.5662 27.349 37.4913C27.349 37.37 27.3098 37.2719 27.2313 37.197C27.1564 37.1186 27.0566 37.0508 26.9317 36.9937C26.8105 36.9367 26.6696 36.885 26.5091 36.8386C26.3486 36.7922 26.1845 36.7405 26.0169 36.6834C25.8528 36.6264 25.6905 36.5586 25.53 36.4801C25.3731 36.4017 25.2322 36.3036 25.1074 36.1859C24.9861 36.0646 24.8862 35.9166 24.8078 35.7418C24.7329 35.5671 24.6954 35.3549 24.6954 35.1052C24.6954 34.8769 24.74 34.6611 24.8292 34.4578C24.9183 34.251 25.0521 34.0691 25.2304 33.9121C25.4088 33.7552 25.6299 33.6304 25.8938 33.5376C26.1613 33.4449 26.4698 33.3985 26.8194 33.3985C27.2117 33.3985 27.5684 33.4627 27.8894 33.5911C28.2104 33.7195 28.4743 33.8872 28.6812 34.094L28.3441 34.6183ZM31.1249 34.0245C31.2283 33.9318 31.3353 33.8479 31.4459 33.773C31.56 33.6946 31.6795 33.6286 31.8043 33.5751C31.9327 33.518 32.0683 33.4752 32.2109 33.4467C32.3572 33.4146 32.5141 33.3985 32.6817 33.3985C32.9813 33.3985 33.247 33.4503 33.4789 33.5537C33.7107 33.6571 33.9051 33.8016 34.062 33.987C34.2225 34.1725 34.342 34.3936 34.4205 34.6504C34.5025 34.9072 34.5435 35.189 34.5435 35.4957V39H33.0723V35.4957C33.0723 35.189 33.0009 34.9518 32.8583 34.7842C32.7156 34.613 32.5052 34.5274 32.227 34.5274C32.0201 34.5274 31.8257 34.572 31.6438 34.6611C31.4619 34.7503 31.2889 34.8751 31.1249 35.0356V39H29.6483V31.0231H31.1249V34.0245ZM38.207 33.3985C38.6208 33.3985 38.997 33.4645 39.3359 33.5965C39.6747 33.7285 39.9654 33.9175 40.2079 34.1636C40.4505 34.4061 40.6377 34.7022 40.7697 35.0517C40.9016 35.4012 40.9676 35.7953 40.9676 36.234C40.9676 36.6727 40.9016 37.0686 40.7697 37.4217C40.6377 37.7713 40.4505 38.0691 40.2079 38.3152C39.9654 38.5613 39.6747 38.7503 39.3359 38.8823C38.997 39.0143 38.6208 39.0803 38.207 39.0803C37.7897 39.0803 37.4099 39.0143 37.0675 38.8823C36.7286 38.7503 36.438 38.5613 36.1954 38.3152C35.9529 38.0691 35.7639 37.7713 35.6283 37.4217C35.4964 37.0686 35.4304 36.6727 35.4304 36.234C35.4304 35.7953 35.4964 35.4012 35.6283 35.0517C35.7639 34.7022 35.9529 34.4061 36.1954 34.1636C36.438 33.9175 36.7286 33.7285 37.0675 33.5965C37.4099 33.4645 37.7897 33.3985 38.207 33.3985ZM38.207 37.9728C38.6279 37.9728 38.94 37.8284 39.1433 37.5395C39.3466 37.247 39.4482 36.8136 39.4482 36.2394C39.4482 35.6687 39.3466 35.2389 39.1433 34.95C38.94 34.6576 38.6279 34.5113 38.207 34.5113C37.7755 34.5113 37.458 34.6576 37.2547 34.95C37.0514 35.2389 36.9498 35.6687 36.9498 36.2394C36.9498 36.8136 37.0514 37.247 37.2547 37.5395C37.458 37.8284 37.7755 37.9728 38.207 37.9728ZM49.7883 33.4842L48.0549 39H46.8618C46.8012 39 46.7459 38.9804 46.696 38.9411C46.6496 38.9019 46.6139 38.8359 46.589 38.7432L45.6902 35.7579C45.6545 35.6438 45.6224 35.5314 45.5939 35.4208C45.5689 35.3067 45.5457 35.1926 45.5243 35.0784C45.4994 35.1926 45.4726 35.3085 45.4441 35.4262C45.4191 35.5403 45.3888 35.6545 45.3531 35.7686L44.4436 38.7432C44.3937 38.9144 44.2867 39 44.1226 39H42.9884L41.255 33.4842H42.432C42.539 33.4842 42.6282 33.5091 42.6995 33.559C42.7744 33.609 42.8244 33.6732 42.8493 33.7516L43.5288 36.4801C43.5716 36.6549 43.609 36.8243 43.6411 36.9884C43.6732 37.1525 43.7035 37.3147 43.7321 37.4752C43.7749 37.3147 43.8195 37.1525 43.8658 36.9884C43.9158 36.8243 43.9675 36.6549 44.021 36.4801L44.8288 33.7409C44.8538 33.666 44.9019 33.6036 44.9733 33.5537C45.0446 33.5038 45.1284 33.4788 45.2247 33.4788H45.8774C45.9809 33.4788 46.0682 33.5038 46.1396 33.5537C46.2145 33.6036 46.2644 33.666 46.2894 33.7409L47.0705 36.4801C47.1204 36.6513 47.1686 36.8208 47.2149 36.9884C47.2613 37.1525 47.3041 37.3183 47.3433 37.4859C47.3719 37.3219 47.4022 37.1578 47.4343 36.9937C47.4699 36.8261 47.511 36.6549 47.5573 36.4801L48.2689 33.7516C48.2938 33.6732 48.342 33.609 48.4133 33.559C48.4847 33.5091 48.5685 33.4842 48.6648 33.4842H49.7883ZM54.3709 34.7146C54.3281 34.7717 54.2853 34.8163 54.2425 34.8484C54.1997 34.8769 54.139 34.8912 54.0606 34.8912C53.9892 34.8912 53.9197 34.8716 53.8519 34.8323C53.7877 34.7895 53.7128 34.745 53.6272 34.6986C53.5416 34.6487 53.44 34.6041 53.3223 34.5648C53.2046 34.522 53.0583 34.5006 52.8836 34.5006C52.6624 34.5006 52.4698 34.5417 52.3058 34.6237C52.1453 34.7022 52.0115 34.8163 51.9045 34.9661C51.7975 35.1159 51.7173 35.2978 51.6638 35.5118C51.6138 35.7258 51.5889 35.9665 51.5889 36.234C51.5889 36.7976 51.7012 37.2291 51.9259 37.5287C52.1542 37.8283 52.4645 37.9781 52.8568 37.9781C52.9924 37.9781 53.1083 37.9674 53.2046 37.946C53.3044 37.9211 53.39 37.8908 53.4614 37.8551C53.5363 37.8194 53.6005 37.7802 53.654 37.7374C53.7075 37.6946 53.7574 37.6554 53.8038 37.6197C53.8537 37.584 53.9019 37.5555 53.9482 37.5341C53.9982 37.5091 54.0534 37.4966 54.1141 37.4966C54.2282 37.4966 54.3174 37.5394 54.3816 37.6251L54.8042 38.16C54.6473 38.3419 54.4797 38.4935 54.3013 38.6148C54.123 38.7325 53.9375 38.827 53.7449 38.8983C53.5559 38.9661 53.3633 39.0125 53.1671 39.0375C52.971 39.066 52.7766 39.0803 52.584 39.0803C52.2451 39.0803 51.9241 39.0178 51.621 38.893C51.3178 38.7646 51.0521 38.5791 50.8238 38.3366C50.5956 38.0941 50.4137 37.7963 50.2781 37.4431C50.1462 37.09 50.0802 36.687 50.0802 36.234C50.0802 35.831 50.139 35.4565 50.2567 35.1105C50.3744 34.7646 50.5474 34.465 50.7757 34.2117C51.0039 33.9585 51.2857 33.7606 51.621 33.6179C51.9598 33.4717 52.3504 33.3985 52.7926 33.3985C53.2135 33.3985 53.5826 33.4663 53.9001 33.6018C54.2175 33.7374 54.5028 33.9335 54.7561 34.1903L54.3709 34.7146ZM58.4355 36.6941C58.0753 36.712 57.7757 36.7441 57.5367 36.7904C57.2978 36.8332 57.107 36.8903 56.9643 36.9616C56.8252 37.033 56.7253 37.115 56.6647 37.2077C56.6076 37.2969 56.5791 37.395 56.5791 37.502C56.5791 37.716 56.6379 37.8676 56.7556 37.9567C56.8769 38.0459 57.0445 38.0905 57.2585 38.0905C57.5046 38.0905 57.7169 38.0477 57.8952 37.9621C58.0771 37.8729 58.2572 37.7356 58.4355 37.5501V36.6941ZM55.4288 34.2492C55.7534 33.9567 56.1119 33.7392 56.5042 33.5965C56.8965 33.4503 57.321 33.3772 57.7775 33.3772C58.1056 33.3772 58.3981 33.4307 58.6549 33.5376C58.9153 33.6446 59.1346 33.7944 59.3129 33.987C59.4948 34.1761 59.6339 34.4026 59.7302 34.6665C59.8265 34.9304 59.8747 35.2193 59.8747 35.5332V39H59.2006C59.0615 39 58.9545 38.9804 58.8796 38.9411C58.8083 38.9019 58.7494 38.8199 58.703 38.695L58.5853 38.3419C58.4462 38.4632 58.3107 38.5702 58.1787 38.663C58.0503 38.7557 57.9166 38.8341 57.7775 38.8983C57.6384 38.959 57.4886 39.0053 57.3281 39.0375C57.1712 39.0696 56.9946 39.0856 56.7984 39.0856C56.5559 39.0856 56.3348 39.0535 56.135 38.9893C55.9353 38.9251 55.7623 38.8306 55.6161 38.7057C55.4734 38.5773 55.3629 38.4186 55.2844 38.2296C55.2059 38.0406 55.1667 37.823 55.1667 37.5769C55.1667 37.3736 55.2184 37.1703 55.3218 36.967C55.4253 36.7637 55.6018 36.58 55.8515 36.4159C56.1047 36.2483 56.44 36.111 56.8573 36.004C57.2782 35.8934 57.8042 35.831 58.4355 35.8167V35.5332C58.4355 35.1872 58.3624 34.934 58.2162 34.7735C58.07 34.6094 57.8595 34.5274 57.5849 34.5274C57.3816 34.5274 57.2122 34.5524 57.0766 34.6023C56.9411 34.6487 56.8216 34.7004 56.7182 34.7574C56.6183 34.8109 56.5238 34.8627 56.4346 34.9126C56.3455 34.959 56.242 34.9821 56.1243 34.9821C56.0209 34.9821 55.9335 34.9572 55.8622 34.9072C55.7944 34.8537 55.7374 34.7913 55.691 34.72L55.4288 34.2492ZM64.4566 34.6183C64.4174 34.679 64.3764 34.7236 64.3336 34.7521C64.2943 34.7771 64.2391 34.7895 64.1677 34.7895C64.0964 34.7895 64.0233 34.7717 63.9484 34.736C63.8735 34.7004 63.7897 34.6629 63.6969 34.6237C63.6042 34.5809 63.4972 34.5417 63.3759 34.506C63.2582 34.4703 63.1209 34.4525 62.964 34.4525C62.725 34.4525 62.5395 34.5024 62.4076 34.6023C62.2756 34.6986 62.2096 34.827 62.2096 34.9875C62.2096 35.0981 62.2471 35.1908 62.322 35.2657C62.3969 35.3406 62.495 35.4066 62.6162 35.4636C62.7411 35.5171 62.8819 35.5689 63.0389 35.6188C63.1958 35.6652 63.3563 35.7169 63.5204 35.7739C63.688 35.831 63.8503 35.897 64.0072 35.9719C64.1642 36.0468 64.3033 36.1413 64.4245 36.2554C64.5494 36.366 64.6492 36.5015 64.7241 36.6621C64.799 36.819 64.8365 37.0098 64.8365 37.2345C64.8365 37.502 64.7865 37.7499 64.6867 37.9781C64.5904 38.2028 64.4477 38.3972 64.2587 38.5613C64.0696 38.7254 63.8342 38.8538 63.5525 38.9465C63.2707 39.0392 62.9461 39.0856 62.5788 39.0856C62.3897 39.0856 62.2025 39.0678 62.017 39.0321C61.8316 39 61.655 38.9536 61.4874 38.893C61.3197 38.8288 61.1628 38.7557 61.0166 38.6736C60.8703 38.5916 60.7437 38.5024 60.6367 38.4061L60.9791 37.8551C61.0184 37.7909 61.0665 37.741 61.1236 37.7053C61.1842 37.6696 61.2609 37.6518 61.3536 37.6518C61.4428 37.6518 61.5248 37.675 61.5997 37.7213C61.6746 37.7641 61.7584 37.8123 61.8512 37.8658C61.9439 37.9157 62.0527 37.9639 62.1775 38.0103C62.3059 38.053 62.4646 38.0744 62.6537 38.0744C62.7963 38.0744 62.9194 38.0584 63.0228 38.0263C63.1263 37.9942 63.2101 37.9514 63.2743 37.8979C63.3385 37.8408 63.3848 37.7784 63.4134 37.7106C63.4455 37.6393 63.4615 37.5662 63.4615 37.4913C63.4615 37.37 63.4223 37.2719 63.3438 37.197C63.2689 37.1186 63.1691 37.0508 63.0442 36.9937C62.923 36.9367 62.7821 36.885 62.6216 36.8386C62.4611 36.7922 62.297 36.7405 62.1294 36.6834C61.9653 36.6264 61.803 36.5586 61.6425 36.4801C61.4856 36.4017 61.3447 36.3036 61.2199 36.1859C61.0986 36.0646 60.9987 35.9166 60.9203 35.7418C60.8454 35.5671 60.8079 35.3549 60.8079 35.1052C60.8079 34.8769 60.8525 34.6611 60.9417 34.4578C61.0308 34.251 61.1646 34.0691 61.3429 33.9121C61.5213 33.7552 61.7424 33.6304 62.0063 33.5376C62.2738 33.4449 62.5823 33.3985 62.9319 33.3985C63.3242 33.3985 63.6809 33.4627 64.0019 33.5911C64.3229 33.7195 64.5868 33.8872 64.7937 34.094L64.4566 34.6183ZM69.2597 35.592C69.2597 35.4387 69.2383 35.2924 69.1955 35.1533C69.1562 35.0142 69.092 34.8912 69.0029 34.7842C68.9137 34.6772 68.8014 34.5934 68.6658 34.5327C68.5303 34.4685 68.368 34.4364 68.179 34.4364C67.8259 34.4364 67.5495 34.5363 67.3497 34.736C67.15 34.9358 67.0198 35.2211 66.9592 35.592H69.2597ZM66.9378 36.4694C66.9841 36.9866 67.1304 37.3647 67.3765 37.6036C67.6261 37.8426 67.9507 37.9621 68.3502 37.9621C68.5535 37.9621 68.7282 37.9389 68.8745 37.8925C69.0243 37.8426 69.1545 37.7891 69.265 37.732C69.3792 37.6714 69.4808 37.6179 69.57 37.5715C69.6627 37.5216 69.7537 37.4966 69.8428 37.4966C69.957 37.4966 70.0461 37.5394 70.1103 37.6251L70.5383 38.16C70.3814 38.3419 70.2084 38.4935 70.0194 38.6148C69.8303 38.7325 69.6342 38.827 69.4309 38.8983C69.2276 38.9661 69.0225 39.0125 68.8156 39.0375C68.6088 39.066 68.409 39.0803 68.2164 39.0803C67.8312 39.0803 67.471 39.0178 67.1357 38.893C66.804 38.7646 66.5133 38.5774 66.2637 38.3313C66.0176 38.0816 65.8232 37.7731 65.6805 37.4057C65.5379 37.0383 65.4665 36.6121 65.4665 36.1271C65.4665 35.7525 65.5272 35.3994 65.6484 35.0677C65.7733 34.736 65.9516 34.4471 66.1834 34.2011C66.4153 33.9549 66.697 33.7606 67.0287 33.6179C67.3604 33.4717 67.7349 33.3985 68.1522 33.3985C68.5053 33.3985 68.8299 33.4556 69.1259 33.5697C69.4255 33.6803 69.6823 33.8426 69.8963 34.0566C70.1139 34.2706 70.2815 34.5345 70.3992 34.8484C70.5205 35.1587 70.5811 35.5136 70.5811 35.913C70.5811 36.0236 70.5758 36.1146 70.5651 36.1859C70.5544 36.2572 70.5365 36.3143 70.5116 36.3571C70.4866 36.3999 70.4527 36.4302 70.4099 36.448C70.3671 36.4623 70.3118 36.4694 70.2441 36.4694H66.9378Z" fill="#7D35F7"/>
</svg>
